<svg class="ds-site-logo sc-header__logo-image" width="141" height="40" viewBox="0 0 141 40" fill="none" xmlns="http://www.w3.org/2000/svg">
  <g class="ds-site-logo__letters">
    <path d="M97.3967 23.3381C95.9662 23.3381 94.9238 24.363 94.9238 25.7761C94.9238 27.1892 95.9627 28.214 97.3967 28.214C98.8308 28.214 99.9011 27.1892 99.9011 25.7761C99.9011 24.363 98.8483 23.3381 97.3967 23.3381Z" fill="#2B2F33"></path>
    <path d="M71.6299 10.3403C66.4812 10.3403 63.0254 13.9465 63.0254 19.3156C63.0254 24.6847 66.5336 28.2175 71.9622 28.2175C75.8727 28.2175 79.311 25.9544 80.0035 22.3027H75.9566C75.4844 23.9816 74.0783 24.9505 71.7628 24.9505C68.9716 24.9505 67.1597 22.9813 67.1318 20.211H80.042C80.878 14.7545 77.2683 10.2179 71.6299 10.3403ZM67.1807 17.5702C67.1807 17.5247 67.1842 17.4688 67.1912 17.4128C67.1947 17.3988 67.1947 17.3813 67.1982 17.3673C67.1982 17.3604 67.1982 17.3499 67.2017 17.3429C67.2087 17.2939 67.2157 17.2484 67.2262 17.1995C67.2367 17.161 67.2472 17.1155 67.2577 17.0735C67.2647 17.0246 67.2787 16.9756 67.2892 16.9301C67.3311 16.7517 67.3871 16.5734 67.4536 16.402C67.485 16.318 67.52 16.2376 67.5515 16.1606C67.583 16.0907 67.6144 16.0277 67.6494 15.9612C68.3909 14.5027 69.8705 13.5758 71.6614 13.5758C73.76 13.5758 75.278 14.6006 75.9111 16.3705C75.9181 16.388 75.9251 16.409 75.9321 16.4334C75.9461 16.4719 75.9601 16.5139 75.9706 16.5559C75.9741 16.5594 75.9776 16.5664 75.9776 16.5733C75.9951 16.6223 76.0091 16.6748 76.0231 16.7238C76.065 16.8742 76.1 17.0386 76.128 17.189C76.163 17.3464 76.1805 17.4863 76.184 17.5702H67.1807Z" fill="#2B2F33"></path>
    <path d="M83.4375 10.5398V28.0147H87.376V14.0341H95.0676V10.5398H83.4375Z" fill="#2B2F33"></path>
    <path d="M136.825 10.5401L132.302 23.1951L127.65 10.5401H123.516L130.186 27.8052L129.542 29.4176C129.011 30.8097 128.696 31.0546 127.416 31.0546H124.743V34.4999H128.745C131.312 34.4999 132.099 33.1917 133.169 30.418L140.959 10.5366H136.821L136.825 10.5401Z" fill="#2B2F33"></path>
    <path d="M114.613 10.3333C111.875 10.3333 109.849 11.9562 109.01 13.7541H108.324L107.768 10.5326H104.421V34.4994H108.324V25.1778H109.115C110.364 27.0142 112.137 28.074 114.613 28.074C119.136 28.074 122.497 24.2719 122.427 19.2036C122.427 13.9779 119.038 10.3333 114.613 10.3333ZM113.358 24.7056C110.465 24.7056 108.324 22.523 108.324 19.2701C108.324 16.0171 110.465 13.7016 113.358 13.7016C116.25 13.7016 118.387 15.9122 118.387 19.2036C118.387 22.495 116.247 24.7056 113.358 24.7056Z" fill="#2B2F33"></path>
    <path d="M52.7735 10.3333C50.0348 10.3333 48.0096 11.9562 47.1701 13.7541H46.4846L45.9284 10.5326H42.5811V34.4994H46.4846V25.1778H47.275C48.5237 27.0142 50.2971 28.074 52.7735 28.074C57.2961 28.074 60.6575 24.2719 60.5875 19.2036C60.5875 13.9779 57.1982 10.3333 52.7735 10.3333ZM51.5178 24.7056C48.6252 24.7056 46.4846 22.523 46.4846 19.2701C46.4846 16.0171 48.6252 13.7016 51.5178 13.7016C54.4105 13.7016 56.5476 15.9122 56.5476 19.2036C56.5476 22.495 54.407 24.7056 51.5178 24.7056Z" fill="#2B2F33"></path>
  </g>
  <g class="ds-site-logo__icon">
    <path d="M26.3618 10.5399H17.6244L14.7667 7.68225C14.0077 6.92323 12.9829 6.5 11.909 6.5H4.08105V10.5399H11.9125L14.7702 13.3976C15.5292 14.1566 16.5541 14.5799 17.6279 14.5799H25.4594V28.0148H29.4993V13.6774C29.4993 11.946 28.0967 10.5399 26.3618 10.5399Z" fill="#3755FA"></path>
    <path d="M4.08093 10.5398H0.0410156V28.9171C0.0410156 30.6485 1.44362 32.0546 3.17851 32.0546H25.4592V28.0147H4.08093V10.5398Z" fill="#3755FA"></path>
  </g>
</svg>